<?xml version="1.0" encoding="UTF-8"?>
<svg version="1.1" viewBox="0 0 63.992 64.001" xmlns="http://www.w3.org/2000/svg">
<path d="m63.035 39.742h-1e-3c4.274-17.144-6.158-34.51-23.302-38.784-17.14-4.274-34.502 6.16-38.774 23.305-4.276 17.142 6.157 34.506 23.294 38.78 17.146 4.275 34.509-6.158 38.783-23.301z" fill="#f7931a"/>
<path d="m45.626 27.239c0.637-4.258-2.605-6.547-7.038-8.074l1.438-5.768-3.511-0.875-1.4 5.616c-0.923-0.23-1.871-0.447-2.813-0.662l1.41-5.653-3.51-0.875-1.438 5.766c-0.764-0.174-1.514-0.346-2.242-0.527l4e-3 -0.018-4.842-1.209-0.934 3.75s2.605 0.597 2.55 0.634c1.422 0.355 1.679 1.296 1.636 2.042l-1.638 6.571c0.098 0.025 0.225 0.061 0.365 0.117l-0.371-0.092-2.296 9.205c-0.174 0.432-0.615 1.08-1.61 0.834 0.036 0.051-2.551-0.637-2.551-0.637l-1.743 4.02 4.569 1.138c0.85 0.213 1.683 0.436 2.503 0.646l-1.453 5.834 3.507 0.875 1.439-5.772c0.958 0.26 1.888 0.5 2.798 0.726l-1.434 5.745 3.51 0.875 1.454-5.823c5.987 1.133 10.489 0.676 12.384-4.739 1.527-4.36-0.076-6.875-3.226-8.515 2.294-0.529 4.022-2.038 4.483-5.155zm-8.022 11.25c-1.085 4.36-8.426 2.002-10.806 1.411l1.928-7.729c2.38 0.594 10.012 1.77 8.878 6.317zm1.086-11.313c-0.99 3.966-7.1 1.951-9.082 1.457l1.748-7.01c1.982 0.494 8.365 1.416 7.334 5.553z" fill="#fff"/>
</svg>
